<?xml version="1.0" encoding="iso-8859-1"?>
<svg width="44px" height="44px" viewBox="0 0 508 508" xmlns="http://www.w3.org/2000/svg" xmlns:xlink="http://www.w3.org/1999/xlink" xml:space="preserve">
  <circle style="fill:#FAD24D;" cx="254" cy="254" r="254"/>
  <path style="fill:#21D0C3;" d="M458.02,155.795c-56.05-5.845-112.142-11.656-168.193-17.506c-56.052-5.854-112.142-11.688-168.228-17.531c-9.497-0.991-15.442,6.43-13.203,16.475c7.552,33.888,15.118,67.798,22.664,101.653c7.551,33.865,15.114,67.782,22.665,101.646c2.241,10.044,9.533,18.266,16.248,18.266c39.471,0,78.977,0,118.448,0h87.411v12.932c0,1.863-1.925,3.037-3.814,3.037H186.762c-1.888,0-3.555,1.965-3.555,3.827v11.367c0,1.863,1.693,3.77,3.555,3.77h188.684h14.798c1.89,0,3.551-1.879,3.551-3.77v-14.798v-16.364h13.07c6.676,0,14.069-6.871,16.432-15.315c7.949-28.413,15.915-56.87,23.853-85.284c7.936-28.393,15.929-56.858,23.852-85.278C473.356,164.485,467.518,156.782,458.02,155.795z"/>
  <path style="fill:#15BDB2;" d="M463.317,170.117l-12.152,42.177l-30.847-3.065c1.61-7.597,3.222-15.194,4.838-22.787c0.809-3.815-1.856-7.179-5.825-7.554c-0.336-0.031-0.706-0.089-1.039-0.119c-4.008-0.377-7.815,2.424-8.532,6.257c-1.42,7.58-2.838,15.155-4.259,22.735l-35.417-3.52l3.175-24.609c0.499-3.882-2.376-7.374-6.346-7.746c-0.367-0.035-0.742-0.065-1.074-0.096c-3.97-0.377-7.639,2.513-8.051,6.404c-0.868,8.19-1.736,16.379-2.596,24.567l-35.534-3.528c0.414-8.15,0.829-16.297,1.257-24.446c0.206-3.979-2.857-7.536-6.863-7.912c-0.334-0.032-0.705-0.065-1.04-0.096c-4.044-0.377-7.414,2.566-7.528,6.57c-0.24,8.133-0.473,16.27-0.708,24.402l-35.584-3.531c-0.183-8.098-0.366-16.197-0.547-24.3c-0.089-4.052-3.448-7.706-7.455-8.083c-0.332-0.031-0.705-0.066-1.037-0.096c-4.048-0.353-7.153,2.687-6.974,6.764c0.354,8.08,0.712,16.156,1.07,24.23l-35.703-3.547c-0.749-8.028-1.495-16.06-2.24-24.088c-0.389-4.195-3.969-7.923-7.977-8.299c-0.331-0.031-0.703-0.064-1.037-0.096c-4.042-0.376-6.894,2.757-6.418,6.955c0.909,8.012,1.817,16.027,2.726,24.041l-35.751-3.553c-1.093-6.837-2.188-13.676-3.288-20.513c-0.693-4.293-4.491-8.09-8.497-8.489c-0.333-0.032-0.666-0.086-1.039-0.12c-3.967-0.372-6.633,2.851-5.861,7.17c1.225,6.822,2.446,13.643,3.668,20.461l-25.492-2.532l-18.943-42.892L463.317,170.117z"/>
  <path style="fill:#21D0C3;" d="M477.123,150.72L35.136,108.365l-0.161-61.227c-0.011-3.764-3.046-6.919-6.808-7.017l-11.86-0.306c-3.764-0.099-6.883,2.902-6.874,6.665l0.213,80.769c0.009,3.764,3.046,6.921,6.806,7.019l0.521,0.013c0.701,0.311,1.46,0.517,2.268,0.594l454.48,43.55c4.093,0.392,7.849-2.585,8.348-6.666l1.578-12.866C484.15,154.814,481.217,151.11,477.123,150.72z"/>
  <circle style="fill:#FFFFFF;" cx="413.572" cy="383.192" r="88.996"/>
  <path style="fill:#FF5B62;" d="M413.569,303.683c43.907,0,79.505,35.594,79.505,79.506c0,43.91-35.597,79.508-79.505,79.508c-43.91,0-79.506-35.597-79.506-79.508C334.064,339.277,369.66,303.683,413.569,303.683z"/>
  <path style="fill:#FFFFFF;" d="M432.813,331.55l5.893-7.906l13.861,8.001l-3.904,9.068c2.687,2.222,5.158,4.694,7.381,7.381l9.068-3.904l8.001,13.861l-7.906,5.895c1.205,3.23,2.114,6.604,2.697,10.089l9.802,1.153v16.003l-9.802,1.154c-0.584,3.484-1.492,6.86-2.697,10.089l7.906,5.893l-8.001,13.861l-9.069-3.904c-2.222,2.687-4.693,5.158-7.379,7.381l3.904,9.068l-13.861,8.001l-5.895-7.906c-3.23,1.205-6.604,2.114-10.089,2.697l-1.153,9.802v16.003l1.153,9.802c3.484,0.584,6.86,1.492,10.089,2.697l-5.895,7.906l-13.861-8.001l-3.904-9.068c-2.687-2.222-5.158-4.693-7.381-7.379l-9.068,3.904l-8.001-13.861l7.906-5.895c-1.205-3.23-2.114-6.604-2.697-10.089l-9.802-1.154v-16.003l9.802-1.153c0.584-3.484,1.492-6.86,2.697-10.089l-7.906-5.893L432.813,331.55z"/>
</svg>
