<!DOCTYPE svg PUBLIC "-//W3C//DTD SVG 1.1//EN" "http://www.w3.org/Graphics/SVG/1.1/DTD/svg11.dtd">

<!-- Uploaded to: SVG Repo, www.svgrepo.com, Transformed by: SVG Repo Mixer Tools -->
<svg height="44" width="44" version="1.1" id="Layer_1" xmlns="http://www.w3.org/2000/svg" xmlns:xlink="http://www.w3.org/1999/xlink" viewBox="0 0 512 512" xml:space="preserve" fill="#000000">

<g id="SVGRepo_bgCarrier" stroke-width="0"/>

<g id="SVGRepo_tracerCarrier" stroke-linecap="round" stroke-linejoin="round"/>

<g id="SVGRepo_iconCarrier"> <circle style="fill:#ffd1ee;" cx="256" cy="256" r="256"/> <path style="fill:#005566;" d="M131.221,76.655h249.557c7.889,0,14.332,6.443,14.332,14.332v330.026 c0,7.889-6.443,14.332-14.332,14.332H131.221c-7.889,0-14.332-6.443-14.332-14.332V90.987 C116.89,83.098,123.332,76.655,131.221,76.655z"/> <path style="fill:#FFFFFF;" d="M134.245,102.032h243.377c0.92,0,1.709,0.789,1.709,1.709v296.366c0,0.92-0.789,1.709-1.709,1.709 H134.245c-0.92,0-1.709-0.789-1.709-1.709V103.741C132.536,102.821,133.325,102.032,134.245,102.032z"/> <circle style="fill:#ECF0F1;" cx="256" cy="417.989" r="9.335"/> <path style="fill:#E4E7ED;" d="M379.332,130.564H132.536v-26.823c0-0.92,0.789-1.709,1.709-1.709h243.377 c0.92,0,1.709,0.789,1.709,1.709V130.564z"/> <path style="fill:#83CF8F;" d="M150.813,110.052c3.55,0,6.443,2.893,6.443,6.443s-2.893,6.443-6.443,6.443s-6.443-2.893-6.443-6.443 S147.262,110.052,150.813,110.052z"/> <path style="fill:#ffd1ee;" d="M168.957,110.052c3.55,0,6.443,2.893,6.443,6.443s-2.893,6.443-6.443,6.443s-6.443-2.893-6.443-6.443 S165.407,110.052,168.957,110.052z"/> <path style="fill:#fffa6b;" d="M186.971,110.052c3.55,0,6.443,2.893,6.443,6.443s-2.893,6.443-6.443,6.443s-6.443-2.893-6.443-6.443 S183.421,110.052,186.971,110.052z"/> <path style="fill:#FFFFFF;" d="M222.997,111.499h146.737c1.052,0,1.972,1.183,1.972,2.63v4.733c0,1.446-0.92,2.63-1.972,2.63 H222.997c-1.052,0-1.972-1.183-1.972-2.63v-4.733C221.025,112.682,221.946,111.499,222.997,111.499z"/> <path style="fill:#fffa6b;" d="M303.334,274.013h-73.631l-30.899-70.739h-19.197v-8.809h24.982l30.899,70.739h67.846V274.013z M317.535,221.025l3.55-8.809h-97.298l3.55,8.809H317.535z M237.987,247.585l3.55,8.809h61.929l3.55-8.809h-68.898H237.987z M313.985,229.966h-83.098l3.55,8.809h75.998L313.985,229.966z M303.334,296.234c0,7.363-5.917,13.28-13.28,13.28 c-7.363,0-13.28-5.917-13.28-13.28s5.917-13.28,13.28-13.28C297.418,282.954,303.334,288.871,303.334,296.234z M259.156,296.234 c0,7.363-5.917,13.28-13.28,13.28c-7.363,0-13.28-5.917-13.28-13.28s5.917-13.28,13.28-13.28 C253.239,282.954,259.156,288.871,259.156,296.234z"/> </g>

</svg>